<svg id="Capa_1" enable-background="new 0 0 512 512" height="512" viewBox="0 0 512 512" width="512" xmlns="http://www.w3.org/2000/svg"><g><circle cx="389.473" cy="256" fill="#6aa9ff" r="88.814"/><circle cx="122.527" cy="256" fill="#7ed8f6" r="88.814"/><path d="m497 179.91h-35.46c-18.8-17.82-44.18-28.76-72.07-28.76-32.81 0-62.15 15.16-81.39 38.83-14.67-11.61-32.86-18.04-52.08-18.04s-37.41 6.43-52.08 18.04c-19.24-23.67-48.58-38.83-81.39-38.83-27.89 0-53.27 10.94-72.07 28.76h-35.46c-8.28 0-15 6.72-15 15s6.72 15 15 15h13.36c-6.84 13.92-10.69 29.56-10.69 46.09 0 57.82 47.04 104.85 104.86 104.85 57.81 0 104.85-47.03 104.85-104.85 0-14.11-2.81-27.58-7.89-39.88 9.9-9.09 22.79-14.18 36.51-14.18s26.61 5.09 36.51 14.18c-5.08 12.3-7.89 25.77-7.89 39.88 0 57.82 47.04 104.85 104.85 104.85 57.82 0 104.86-47.03 104.86-104.85 0-16.53-3.85-32.17-10.69-46.09h13.36c8.28 0 15-6.72 15-15s-6.72-15-15-15zm-374.47 150.94c-41.28 0-74.86-33.58-74.86-74.85s33.58-74.85 74.86-74.85c41.27 0 74.85 33.58 74.85 74.85s-33.58 74.85-74.85 74.85zm266.94 0c-41.27 0-74.85-33.58-74.85-74.85s33.58-74.85 74.85-74.85c41.28 0 74.86 33.58 74.86 74.85s-33.58 74.85-74.86 74.85z" fill="#334973"/><path d="m497 179.91h-35.46c-18.8-17.82-44.18-28.76-72.07-28.76-32.81 0-62.15 15.16-81.39 38.83-14.67-11.61-32.86-18.04-52.08-18.04v30c13.72 0 26.61 5.09 36.51 14.18-5.08 12.3-7.89 25.77-7.89 39.88 0 57.82 47.04 104.85 104.85 104.85 57.82 0 104.86-47.03 104.86-104.85 0-16.53-3.85-32.17-10.69-46.09h13.36c8.28 0 15-6.72 15-15s-6.72-15-15-15zm-107.53 150.94c-41.27 0-74.85-33.58-74.85-74.85s33.58-74.85 74.85-74.85c41.28 0 74.86 33.58 74.86 74.85s-33.58 74.85-74.86 74.85z" fill="#1f3259"/></g></svg>