<svg id="Capa_1" data-name="Capa 1" xmlns="http://www.w3.org/2000/svg" xmlns:xlink="http://www.w3.org/1999/xlink" viewBox="0 0 1173.25 385.64"><defs><style>.cls-1{fill:#055199;}.cls-2{fill:url(#Degradado_sin_nombre_26);}.cls-3{fill:url(#Degradado_sin_nombre_26-2);}.cls-4{fill:url(#Degradado_sin_nombre_26-3);}.cls-5{fill:url(#Degradado_sin_nombre_26-4);}.cls-6{fill:url(#Degradado_sin_nombre_26-5);}.cls-7{fill:url(#Degradado_sin_nombre_26-6);}.cls-8{fill:url(#Degradado_sin_nombre_26-7);}.cls-9{fill:url(#Degradado_sin_nombre_14);}.cls-10{fill:url(#Degradado_sin_nombre_14-2);}.cls-11{fill:none;stroke:#fff;stroke-miterlimit:10;stroke-width:8px;}.cls-12{fill:url(#Degradado_sin_nombre_14-3);}</style><linearGradient id="Degradado_sin_nombre_26" x1="510.25" y1="235.85" x2="510.25" y2="117.77" gradientUnits="userSpaceOnUse"><stop offset="0.07" stop-color="#055199"/><stop offset="0.35" stop-color="#0d80c4"/><stop offset="0.65" stop-color="#055199"/></linearGradient><linearGradient id="Degradado_sin_nombre_26-2" x1="638.26" y1="235.85" x2="638.26" y2="117.77" xlink:href="#Degradado_sin_nombre_26"/><linearGradient id="Degradado_sin_nombre_26-3" x1="743.61" y1="235.85" x2="743.61" y2="117.77" xlink:href="#Degradado_sin_nombre_26"/><linearGradient id="Degradado_sin_nombre_26-4" x1="843.73" y1="235.85" x2="843.73" y2="117.77" xlink:href="#Degradado_sin_nombre_26"/><linearGradient id="Degradado_sin_nombre_26-5" x1="935.67" y1="239.41" x2="935.67" y2="114.04" xlink:href="#Degradado_sin_nombre_26"/><linearGradient id="Degradado_sin_nombre_26-6" x1="1030.88" y1="235.85" x2="1030.88" y2="116.59" xlink:href="#Degradado_sin_nombre_26"/><linearGradient id="Degradado_sin_nombre_26-7" x1="1139.57" y1="235.85" x2="1139.57" y2="117.77" xlink:href="#Degradado_sin_nombre_26"/><linearGradient id="Degradado_sin_nombre_14" x1="164.6" y1="202.92" x2="388.09" y2="202.92" gradientUnits="userSpaceOnUse"><stop offset="0" stop-color="#95c11f"/><stop offset="1" stop-color="#009640"/></linearGradient><linearGradient id="Degradado_sin_nombre_14-2" x1="309.16" y1="794.98" x2="528.87" y2="794.98" gradientTransform="translate(543.23 1018.48) rotate(180)" xlink:href="#Degradado_sin_nombre_14"/><linearGradient id="Degradado_sin_nombre_14-3" x1="131.16" y1="198.88" x2="207.06" y2="198.88" xlink:href="#Degradado_sin_nombre_14"/></defs><title>logo</title><path class="cls-1" d="M445.5,307.06H423.27l.07-.49a3.11,3.11,0,0,0,2-.42,3.7,3.7,0,0,0,.69-2l4.2-27.53a3.12,3.12,0,0,0-.08-2c-.22-.28-.83-.42-1.84-.42l.07-.49h21.74l-.72,5.07h-.68c0-1.25-.24-2-.8-2.29a5.92,5.92,0,0,0-2.54-.42H435.5c-.55,0-.88.06-1,.17a2.47,2.47,0,0,0-.26,1l-1.72,11.28h9.89a13.78,13.78,0,0,0,1.38-.07,2.74,2.74,0,0,0,1-.32,2,2,0,0,0,.67-.74A6.17,6.17,0,0,0,446,286h.64l-1.13,7.43h-.64a5,5,0,0,0-.08-1.38,1.39,1.39,0,0,0-.45-.76,1.57,1.57,0,0,0-.87-.34,10.25,10.25,0,0,0-1.38-.08h-9.89l-2,12.85a.73.73,0,0,0,.16.67,1,1,0,0,0,.6.27,3.86,3.86,0,0,0,.77,0l.71,0h8.05a15.24,15.24,0,0,0,2-.12,5.15,5.15,0,0,0,1.61-.52,5.31,5.31,0,0,0,1.38-1.06,9.13,9.13,0,0,0,1.3-1.8h.78Z" transform="translate(-14.36 -19.53)"/><path class="cls-1" d="M459.88,306.4a.91.91,0,0,0-.34.61H459l.85-7.19.12-.14h.44a7.23,7.23,0,0,0,1.85,3.4,7.83,7.83,0,0,0,2.86,1.84,8.24,8.24,0,0,0,3.29.47,8.39,8.39,0,0,0,3.22-.84,7.47,7.47,0,0,0,2.56-2,6.35,6.35,0,0,0,1.32-3.08,5,5,0,0,0-.6-3.55,10.31,10.31,0,0,0-2.46-2.58,32.07,32.07,0,0,0-3.39-2.22,20,20,0,0,1-3.37-2.36,9.92,9.92,0,0,1-2.39-3.05,7.27,7.27,0,0,1-.48-4.36,8.14,8.14,0,0,1,1.33-3.42,10.83,10.83,0,0,1,2.51-2.59,11.45,11.45,0,0,1,3.25-1.65,11.7,11.7,0,0,1,3.52-.56,10.94,10.94,0,0,1,2,.17,13.52,13.52,0,0,1,1.9.47,3.74,3.74,0,0,0,.52.17l.9.27.91.27.47.12a1.16,1.16,0,0,0,1.07-.93h.54c-.06,1.21-.13,2.46-.21,3.74a26.73,26.73,0,0,1-.5,3.74h-.53A6.36,6.36,0,0,0,479,278a7.28,7.28,0,0,0-2.52-1.87,7.47,7.47,0,0,0-3.09-.64,7.92,7.92,0,0,0-3,.59,6.47,6.47,0,0,0-2.47,1.77,5.55,5.55,0,0,0-1.29,2.91,3.58,3.58,0,0,0,.35,2.34,7.93,7.93,0,0,0,1.4,1.84,21.66,21.66,0,0,0,2.39,1.93c.85.58,1.72,1.14,2.62,1.67l-.32-.15a31.58,31.58,0,0,1,2.82,1.82,12.56,12.56,0,0,1,2.32,2.22,8.05,8.05,0,0,1,1.42,2.78,8.22,8.22,0,0,1,.14,3.57,8.76,8.76,0,0,1-1.5,3.77,11.37,11.37,0,0,1-2.84,2.78,13.26,13.26,0,0,1-3.6,1.72,13,13,0,0,1-3.85.59,14.23,14.23,0,0,1-3.82-.49l-3.64-1A1.19,1.19,0,0,0,459.88,306.4Z" transform="translate(-14.36 -19.53)"/><path class="cls-1" d="M498,304.16a7.76,7.76,0,0,0-.11,1.35,1,1,0,0,0,.29.71,1.12,1.12,0,0,0,.73.3c.32,0,.74.05,1.26.05l-.08.49h-9l.08-.49a8.12,8.12,0,0,0,1.21-.07,1.44,1.44,0,0,0,.75-.33,1.51,1.51,0,0,0,.43-.71,11.35,11.35,0,0,0,.27-1.3l4.2-27.53a8.79,8.79,0,0,0,.12-1.28,1.19,1.19,0,0,0-.2-.74,1.08,1.08,0,0,0-.66-.32,7.66,7.66,0,0,0-1.19-.07l.08-.49h11a16.74,16.74,0,0,1,4.18.51,9.54,9.54,0,0,1,3.44,1.63,6.55,6.55,0,0,1,2.12,2.88,8.36,8.36,0,0,1,.29,4.28,10.22,10.22,0,0,1-4.82,7.51,13.07,13.07,0,0,1-4.1,1.65,19,19,0,0,1-4.58.44l-4-.09Zm2.15-14.08,3.45.09a13,13,0,0,0,3.43-.32,7.86,7.86,0,0,0,2.83-1.23,7.22,7.22,0,0,0,2.05-2.26,9.9,9.9,0,0,0,1.13-3.42,6.77,6.77,0,0,0-.18-3.16,4.65,4.65,0,0,0-1.45-2.14,6.59,6.59,0,0,0-2.43-1.2,11.25,11.25,0,0,0-3.08-.4A5.42,5.42,0,0,1,505,276a9,9,0,0,0-.94-.1,6,6,0,0,0-.95,0,2.06,2.06,0,0,0-.85.3Z" transform="translate(-14.36 -19.53)"/><path class="cls-1" d="M546.35,307.06H524.13l.07-.49a3.13,3.13,0,0,0,2-.42,3.7,3.7,0,0,0,.69-2l4.2-27.53c.16-1.05.13-1.71-.09-2s-.83-.42-1.83-.42l.07-.49H551l-.72,5.07h-.68c0-1.25-.24-2-.8-2.29a5.94,5.94,0,0,0-2.55-.42h-9.84c-.56,0-.88.06-1,.17a2.42,2.42,0,0,0-.27,1l-1.72,11.28h9.9a13.41,13.41,0,0,0,1.37-.07,2.74,2.74,0,0,0,1-.32,2,2,0,0,0,.68-.74,6.17,6.17,0,0,0,.49-1.33h.64l-1.14,7.43h-.63a6,6,0,0,0-.08-1.38,1.39,1.39,0,0,0-.45-.76,1.63,1.63,0,0,0-.87-.34,10.47,10.47,0,0,0-1.38-.08H533l-2,12.85a.75.75,0,0,0,.17.67,1,1,0,0,0,.59.27,4,4,0,0,0,.78,0l.71,0h8a15.4,15.4,0,0,0,2-.12,5.15,5.15,0,0,0,1.61-.52,5.66,5.66,0,0,0,1.38-1.06,9.13,9.13,0,0,0,1.3-1.8h.78Z" transform="translate(-14.36 -19.53)"/><path class="cls-1" d="M580.85,306.74a20.2,20.2,0,0,1-6,.91,16.77,16.77,0,0,1-6.75-1.25,12,12,0,0,1-4.66-3.52,12.54,12.54,0,0,1-2.43-5.44,20.06,20.06,0,0,1-.06-7,22.15,22.15,0,0,1,2.22-6.87,20.26,20.26,0,0,1,4.18-5.51,18.44,18.44,0,0,1,12.77-5,22.12,22.12,0,0,1,5.08.59l.72.22.91.27c.31.1.61.18.89.25a3.62,3.62,0,0,0,.72.1,1.33,1.33,0,0,0,1.3-.89h.54c-.08.52-.17,1.13-.28,1.82s-.21,1.33-.33,2-.26,1.36-.41,2a10.32,10.32,0,0,1-.53,1.72,11,11,0,0,0-3.15-4.26,8.44,8.44,0,0,0-5.24-1.45,13.52,13.52,0,0,0-5.84,1.21,13.84,13.84,0,0,0-4.41,3.22,16.86,16.86,0,0,0-3,4.73,22.84,22.84,0,0,0-1.62,5.71,20.37,20.37,0,0,0-.11,5.81,11.38,11.38,0,0,0,1.65,4.7,8.94,8.94,0,0,0,3.51,3.15,12,12,0,0,0,5.56,1.16c.78,0,1.62,0,2.54-.05a21.18,21.18,0,0,0,2.74-.27,15,15,0,0,0,2.67-.69,8.81,8.81,0,0,0,2.39-1.3l.07.83A17.07,17.07,0,0,1,580.85,306.74Z" transform="translate(-14.36 -19.53)"/><path class="cls-1" d="M596.91,307.06l.07-.49c.55,0,1,0,1.35-.05a1.67,1.67,0,0,0,.84-.27,1.43,1.43,0,0,0,.51-.72,8.33,8.33,0,0,0,.3-1.37l4.2-27.53a7,7,0,0,0,.11-1.38.91.91,0,0,0-.28-.71,1.29,1.29,0,0,0-.76-.27c-.34,0-.78,0-1.33,0l.07-.49h9.46l-.08.49c-.55,0-1,0-1.34,0a1.74,1.74,0,0,0-.85.27,1.43,1.43,0,0,0-.5.71,8.58,8.58,0,0,0-.31,1.38l-4.2,27.53a7.9,7.9,0,0,0-.11,1.37,1,1,0,0,0,.28.72,1.33,1.33,0,0,0,.77.27c.33,0,.78.05,1.33.05l-.08.49Z" transform="translate(-14.36 -19.53)"/><path class="cls-1" d="M643.21,307.06l.08-.49a3,3,0,0,0,1.72-.42c.4-.28.49-.83.25-1.65L643.38,297H628.71l-3.78,6.89a3.31,3.31,0,0,0-.62,2c.08.46.63.69,1.67.69l-.07.49h-6.82l.07-.49a2.19,2.19,0,0,0,1.05-.35,4,4,0,0,0,.84-.69,4.54,4.54,0,0,0,.67-.88c.2-.33.38-.66.57-1l17.09-30.29h2.68l8.16,31.56a2.13,2.13,0,0,0,1.84,1.63l-.07.49Zm-4.27-28.51-8.89,16.05h12.87Z" transform="translate(-14.36 -19.53)"/><path class="cls-1" d="M686.26,307.06h-22l.07-.49a8.35,8.35,0,0,0,1.25-.07,1.44,1.44,0,0,0,.76-.33,1.51,1.51,0,0,0,.43-.71,11.35,11.35,0,0,0,.27-1.3l4.2-27.53a8.79,8.79,0,0,0,.12-1.28,1.13,1.13,0,0,0-.21-.74,1,1,0,0,0-.65-.32,8.21,8.21,0,0,0-1.24-.07l.08-.49h9l-.08.49a8.83,8.83,0,0,0-1.27.07,1.66,1.66,0,0,0-.81.32,1.65,1.65,0,0,0-.47.72,6.14,6.14,0,0,0-.3,1.3l-4.14,27.13a.7.7,0,0,0,.17.67,1,1,0,0,0,.59.27,4,4,0,0,0,.78,0l.71,0h7.11c.88,0,1.67,0,2.36-.1a6.1,6.1,0,0,0,1.88-.47,4.91,4.91,0,0,0,1.56-1.13,12.57,12.57,0,0,0,1.5-2l.62.15Z" transform="translate(-14.36 -19.53)"/><path class="cls-1" d="M697.67,307.06l.07-.49c.55,0,1,0,1.35-.05a1.7,1.7,0,0,0,.84-.27,1.36,1.36,0,0,0,.5-.72,7.28,7.28,0,0,0,.31-1.37l4.2-27.53a7,7,0,0,0,.11-1.38,1,1,0,0,0-.28-.71,1.32,1.32,0,0,0-.76-.27c-.34,0-.78,0-1.33,0l.07-.49h9.46l-.08.49c-.55,0-1,0-1.35,0a1.74,1.74,0,0,0-.84.27,1.37,1.37,0,0,0-.5.71,7.61,7.61,0,0,0-.31,1.38l-4.2,27.53a7.9,7.9,0,0,0-.11,1.37,1,1,0,0,0,.28.72,1.32,1.32,0,0,0,.76.27c.34,0,.79.05,1.34.05l-.08.49Z" transform="translate(-14.36 -19.53)"/><path class="cls-1" d="M721.09,306.57c.49,0,.9,0,1.23-.05a1.26,1.26,0,0,0,.77-.3,1.73,1.73,0,0,0,.46-.73,8.72,8.72,0,0,0,.3-1.33l4.2-27.53a7.08,7.08,0,0,0,.1-1.33,1.27,1.27,0,0,0-.23-.74,1,1,0,0,0-.68-.29c-.32,0-.73,0-1.21,0l.07-.49h11.31a23.65,23.65,0,0,1,7.23,1,12.82,12.82,0,0,1,5.26,3.07,11.35,11.35,0,0,1,2.91,5.22,18.23,18.23,0,0,1,.18,7.44,21.59,21.59,0,0,1-2.15,6.72,16.36,16.36,0,0,1-4.74,5.54,19,19,0,0,1-6.86,3.4,29.48,29.48,0,0,1-7.31.93H721Zm7-3.05a.68.68,0,0,0,.24.69,2.13,2.13,0,0,0,.77.37,4.36,4.36,0,0,0,.95.14l.73,0a25.17,25.17,0,0,0,6.6-.82,15.1,15.1,0,0,0,5.37-2.56,14.27,14.27,0,0,0,3.85-4.48,19.31,19.31,0,0,0,2.12-6.57,16.36,16.36,0,0,0-.1-6.33,9.67,9.67,0,0,0-2.37-4.45,10.47,10.47,0,0,0-4.38-2.64,20.08,20.08,0,0,0-6.13-.86,11.87,11.87,0,0,0-1.83.15,4,4,0,0,0-1.77.74Z" transform="translate(-14.36 -19.53)"/><path class="cls-1" d="M782.24,307.06l.08-.49a3,3,0,0,0,1.72-.42c.4-.28.48-.83.25-1.65L782.41,297H767.74L764,303.91a3.35,3.35,0,0,0-.61,2c.07.46.63.69,1.67.69l-.08.49h-6.82l.08-.49a2.22,2.22,0,0,0,1-.35,4.17,4.17,0,0,0,.83-.69,4.58,4.58,0,0,0,.68-.88l.56-1,17.1-30.29h2.68l8.15,31.56a2.14,2.14,0,0,0,1.85,1.63l-.07.49ZM778,278.55l-8.88,16.05H782Z" transform="translate(-14.36 -19.53)"/><path class="cls-1" d="M801.91,306.57c.49,0,.9,0,1.23-.05a1.26,1.26,0,0,0,.77-.3,1.73,1.73,0,0,0,.46-.73,8.72,8.72,0,0,0,.3-1.33l4.2-27.53a7.08,7.08,0,0,0,.1-1.33,1.21,1.21,0,0,0-.23-.74,1,1,0,0,0-.68-.29c-.32,0-.73,0-1.21,0l.07-.49h11.31a23.65,23.65,0,0,1,7.23,1,12.82,12.82,0,0,1,5.26,3.07,11.35,11.35,0,0,1,2.91,5.22,18.23,18.23,0,0,1,.18,7.44,21.59,21.59,0,0,1-2.15,6.72,16.36,16.36,0,0,1-4.74,5.54,19,19,0,0,1-6.85,3.4,29.6,29.6,0,0,1-7.31.93H801.84Zm7-3.05a.68.68,0,0,0,.24.69,2.21,2.21,0,0,0,.77.37,4.36,4.36,0,0,0,1,.14l.73,0a25.31,25.31,0,0,0,6.61-.82,15.14,15.14,0,0,0,5.36-2.56,14.14,14.14,0,0,0,3.85-4.48,19.1,19.1,0,0,0,2.12-6.57,16.36,16.36,0,0,0-.1-6.33,9.67,9.67,0,0,0-2.37-4.45,10.35,10.35,0,0,0-4.38-2.64,20.08,20.08,0,0,0-6.13-.86,11.64,11.64,0,0,0-1.82.15,4,4,0,0,0-1.77.74Z" transform="translate(-14.36 -19.53)"/><path class="cls-1" d="M865.4,307.06H843.18l.07-.49a3.13,3.13,0,0,0,2-.42,3.7,3.7,0,0,0,.69-2l4.2-27.53c.16-1.05.13-1.71-.09-2s-.83-.42-1.83-.42l.07-.49H870l-.72,5.07h-.68c0-1.25-.24-2-.8-2.29a5.94,5.94,0,0,0-2.55-.42h-9.84c-.56,0-.88.06-1,.17a2.42,2.42,0,0,0-.27,1l-1.72,11.28h9.9a13.41,13.41,0,0,0,1.37-.07,2.74,2.74,0,0,0,1-.32,2,2,0,0,0,.68-.74,6.17,6.17,0,0,0,.49-1.33h.64l-1.14,7.43h-.63a5.46,5.46,0,0,0-.08-1.38,1.39,1.39,0,0,0-.45-.76,1.63,1.63,0,0,0-.87-.34,10.47,10.47,0,0,0-1.38-.08h-9.89l-2,12.85a.75.75,0,0,0,.17.67,1,1,0,0,0,.59.27,4,4,0,0,0,.78,0l.71,0h8a15.4,15.4,0,0,0,2.05-.12,5.15,5.15,0,0,0,1.61-.52,5.66,5.66,0,0,0,1.38-1.06,9.13,9.13,0,0,0,1.3-1.8h.78Z" transform="translate(-14.36 -19.53)"/><path class="cls-1" d="M879.79,306.4a.91.91,0,0,0-.34.61h-.58l.85-7.19.12-.14h.44a7.31,7.31,0,0,0,1.84,3.4,7.87,7.87,0,0,0,2.87,1.84,8.24,8.24,0,0,0,3.29.47,8.44,8.44,0,0,0,3.22-.84,7.56,7.56,0,0,0,2.56-2,6.35,6.35,0,0,0,1.32-3.08,5,5,0,0,0-.61-3.55,10.26,10.26,0,0,0-2.45-2.58,33.13,33.13,0,0,0-3.39-2.22,20.51,20.51,0,0,1-3.38-2.36,10,10,0,0,1-2.38-3.05,7.12,7.12,0,0,1-.48-4.36,8.14,8.14,0,0,1,1.33-3.42,10.64,10.64,0,0,1,2.51-2.59,11.45,11.45,0,0,1,3.25-1.65,11.7,11.7,0,0,1,3.52-.56,10.94,10.94,0,0,1,2,.17,13.52,13.52,0,0,1,1.9.47,3.93,3.93,0,0,0,.51.17l.91.27.91.27.47.12a1.16,1.16,0,0,0,1.07-.93h.54c-.06,1.21-.13,2.46-.21,3.74a26.73,26.73,0,0,1-.5,3.74h-.54a6.35,6.35,0,0,0-1.42-3.1,7.28,7.28,0,0,0-2.52-1.87,7.48,7.48,0,0,0-3.1-.64,7.9,7.9,0,0,0-3,.59,6.47,6.47,0,0,0-2.47,1.77,5.64,5.64,0,0,0-1.3,2.91,3.64,3.64,0,0,0,.36,2.34,7.67,7.67,0,0,0,1.4,1.84,21.54,21.54,0,0,0,2.38,1.93c.86.58,1.73,1.14,2.62,1.67l-.31-.15a30,30,0,0,1,2.81,1.82,12.26,12.26,0,0,1,2.32,2.22,7.91,7.91,0,0,1,1.43,2.78,8.38,8.38,0,0,1,.14,3.57,8.76,8.76,0,0,1-1.5,3.77,11.37,11.37,0,0,1-2.84,2.78,13.26,13.26,0,0,1-3.6,1.72,13,13,0,0,1-3.85.59,14.17,14.17,0,0,1-3.82-.49l-3.65-1A1.2,1.2,0,0,0,879.79,306.4Z" transform="translate(-14.36 -19.53)"/><path class="cls-1" d="M962.27,307.06l.07-.49a9,9,0,0,0,1.28-.07,1.49,1.49,0,0,0,1.28-1,7,7,0,0,0,.29-1.3l4.06-26.59-17,29.49h-1.65l-8.08-28.85-3.77,24.67c-.09.62-.17,1.16-.22,1.62a2.84,2.84,0,0,0,.07,1.16,1.14,1.14,0,0,0,.62.69,3.78,3.78,0,0,0,1.51.22l-.08.49h-7.85l.08-.49a4.65,4.65,0,0,0,1.61-.22,1.76,1.76,0,0,0,.89-.67,3.18,3.18,0,0,0,.41-1.13c.09-.46.18-1,.28-1.67l4-26.25a6,6,0,0,0,.08-1.38,1,1,0,0,0-.3-.71,1.32,1.32,0,0,0-.76-.27c-.34,0-.77,0-1.29,0l.08-.49h7.6L953.2,301l15.66-27.28h7.46l-.08.49a8.44,8.44,0,0,0-1.25.07,1.51,1.51,0,0,0-.76.32,1.64,1.64,0,0,0-.42.74,9.61,9.61,0,0,0-.27,1.28l-4.2,27.53a8.62,8.62,0,0,0-.13,1.3,1.06,1.06,0,0,0,.21.71,1,1,0,0,0,.66.33,8,8,0,0,0,1.23.07l-.07.49Z" transform="translate(-14.36 -19.53)"/><path class="cls-1" d="M1007.4,307.06H985.18l.07-.49a3.13,3.13,0,0,0,2-.42,3.7,3.7,0,0,0,.69-2l4.2-27.53c.16-1.05.13-1.71-.09-2s-.83-.42-1.83-.42l.07-.49H1012l-.72,5.07h-.69c0-1.25-.23-2-.79-2.29a5.94,5.94,0,0,0-2.55-.42h-9.84c-.56,0-.88.06-1,.17a2.42,2.42,0,0,0-.27,1l-1.72,11.28h9.9a13.57,13.57,0,0,0,1.37-.07,2.74,2.74,0,0,0,1-.32,2,2,0,0,0,.68-.74,6.75,6.75,0,0,0,.49-1.33h.64l-1.14,7.43h-.63a6,6,0,0,0-.08-1.38,1.39,1.39,0,0,0-.45-.76,1.63,1.63,0,0,0-.88-.34,10.2,10.2,0,0,0-1.37-.08h-9.9l-2,12.85a.73.73,0,0,0,.17.67,1,1,0,0,0,.59.27,4,4,0,0,0,.78,0l.71,0h8a15.4,15.4,0,0,0,2.05-.12,5.24,5.24,0,0,0,1.61-.52,5.66,5.66,0,0,0,1.38-1.06,9.13,9.13,0,0,0,1.3-1.8h.78Zm-8.76-35.55a19.55,19.55,0,0,0,1.82-1.72l1.73-1.87c.56-.62,1.14-1.24,1.72-1.85a14.45,14.45,0,0,1,1.86-1.65,3.05,3.05,0,0,1,1.18-.59,2.89,2.89,0,0,1,1.16-.05,1.63,1.63,0,0,1,.84.42.89.89,0,0,1,.24.81.87.87,0,0,1-.28.52,2.18,2.18,0,0,1-.49.37,40.36,40.36,0,0,0-3.91,2.76q-1.86,1.47-3.78,2.9Z" transform="translate(-14.36 -19.53)"/><path class="cls-1" d="M1019.81,306.57c.49,0,.9,0,1.23-.05a1.31,1.31,0,0,0,.78-.3,1.83,1.83,0,0,0,.45-.73,6.83,6.83,0,0,0,.3-1.33l4.2-27.53a7.08,7.08,0,0,0,.1-1.33,1.28,1.28,0,0,0-.22-.74,1,1,0,0,0-.69-.29c-.32,0-.72,0-1.21,0l.07-.49h11.31a23.77,23.77,0,0,1,7.24,1,12.78,12.78,0,0,1,5.25,3.07,11.35,11.35,0,0,1,2.91,5.22,18.23,18.23,0,0,1,.18,7.44,21.59,21.59,0,0,1-2.15,6.72,16.36,16.36,0,0,1-4.74,5.54,19,19,0,0,1-6.85,3.4,29.54,29.54,0,0,1-7.31.93h-10.92Zm7-3.05a.7.7,0,0,0,.24.69,2.21,2.21,0,0,0,.77.37,4.36,4.36,0,0,0,1,.14l.73,0a25.31,25.31,0,0,0,6.61-.82,15.05,15.05,0,0,0,5.36-2.56,14.14,14.14,0,0,0,3.85-4.48,19.1,19.1,0,0,0,2.13-6.57,16.34,16.34,0,0,0-.11-6.33,9.58,9.58,0,0,0-2.37-4.45,10.37,10.37,0,0,0-4.37-2.64,20.19,20.19,0,0,0-6.14-.86,11.64,11.64,0,0,0-1.82.15,4,4,0,0,0-1.77.74Z" transform="translate(-14.36 -19.53)"/><path class="cls-1" d="M1060.93,307.06l.07-.49c.55,0,1,0,1.35-.05a1.74,1.74,0,0,0,.85-.27,1.41,1.41,0,0,0,.5-.72,8.33,8.33,0,0,0,.3-1.37l4.2-27.53a8.14,8.14,0,0,0,.12-1.38,1,1,0,0,0-.28-.71,1.35,1.35,0,0,0-.77-.27c-.34,0-.78,0-1.33,0l.07-.49h9.46l-.07.49c-.56,0-1,0-1.35,0a1.74,1.74,0,0,0-.85.27,1.49,1.49,0,0,0-.5.71,8.58,8.58,0,0,0-.31,1.38l-4.19,27.53a8.11,8.11,0,0,0-.12,1.37,1,1,0,0,0,.28.72,1.35,1.35,0,0,0,.77.27c.33,0,.78.05,1.33.05l-.07.49Z" transform="translate(-14.36 -19.53)"/><path class="cls-1" d="M1105.46,306.74a20.14,20.14,0,0,1-6,.91,16.78,16.78,0,0,1-6.76-1.25,12,12,0,0,1-4.65-3.52,12.55,12.55,0,0,1-2.44-5.44,20.31,20.31,0,0,1,0-7,21.63,21.63,0,0,1,2.22-6.87A19.87,19.87,0,0,1,1092,278a18.44,18.44,0,0,1,12.77-5,22.1,22.1,0,0,1,5.07.59c.19.06.43.14.73.22l.91.27c.31.1.6.18.89.25a3.53,3.53,0,0,0,.71.1,1.34,1.34,0,0,0,1.31-.89h.53c-.08.52-.17,1.13-.27,1.82s-.22,1.33-.34,2-.26,1.36-.4,2a11.36,11.36,0,0,1-.53,1.72,11.15,11.15,0,0,0-3.16-4.26,8.42,8.42,0,0,0-5.24-1.45,13.48,13.48,0,0,0-5.83,1.21,13.88,13.88,0,0,0-4.42,3.22,16.83,16.83,0,0,0-3,4.73,23.28,23.28,0,0,0-1.63,5.71,20.74,20.74,0,0,0-.11,5.81,11.53,11.53,0,0,0,1.65,4.7,9,9,0,0,0,3.52,3.15,11.88,11.88,0,0,0,5.55,1.16c.78,0,1.63,0,2.54-.05a21.33,21.33,0,0,0,2.75-.27,15.07,15.07,0,0,0,2.66-.69,9,9,0,0,0,2.4-1.3l.06.83A17,17,0,0,1,1105.46,306.74Z" transform="translate(-14.36 -19.53)"/><path class="cls-1" d="M1143.12,307.06l.07-.49a3,3,0,0,0,1.72-.42c.4-.28.48-.83.25-1.65l-1.88-7.48h-14.67l-3.78,6.89a3.31,3.31,0,0,0-.62,2c.08.46.63.69,1.67.69l-.07.49H1119l.07-.49a2.15,2.15,0,0,0,1-.35,4,4,0,0,0,.84-.69,4.54,4.54,0,0,0,.67-.88c.2-.33.38-.66.57-1l17.09-30.29H1142l8.16,31.56a2.13,2.13,0,0,0,1.85,1.63l-.08.49Zm-4.28-28.51L1130,294.6h12.87Z" transform="translate(-14.36 -19.53)"/><path class="cls-1" d="M1163.89,306.4a.91.91,0,0,0-.34.61H1163l.86-7.19.12-.14h.43a7.41,7.41,0,0,0,1.85,3.4,7.91,7.91,0,0,0,2.86,1.84,8.32,8.32,0,0,0,3.3.47,8.44,8.44,0,0,0,3.22-.84,7.56,7.56,0,0,0,2.56-2,6.44,6.44,0,0,0,1.32-3.08,5,5,0,0,0-.61-3.55,10.44,10.44,0,0,0-2.45-2.58,33.31,33.31,0,0,0-3.4-2.22,20.85,20.85,0,0,1-3.37-2.36,10,10,0,0,1-2.38-3.05,7.12,7.12,0,0,1-.48-4.36,8,8,0,0,1,1.32-3.42,10.87,10.87,0,0,1,2.52-2.59,11.45,11.45,0,0,1,3.25-1.65,11.7,11.7,0,0,1,3.52-.56,11,11,0,0,1,2,.17,13.52,13.52,0,0,1,1.9.47,3.93,3.93,0,0,0,.51.17l.91.27.91.27.47.12a1.16,1.16,0,0,0,1.07-.93h.53c0,1.21-.12,2.46-.2,3.74a26.73,26.73,0,0,1-.5,3.74h-.53A6.55,6.55,0,0,0,1183,278a7.28,7.28,0,0,0-2.52-1.87,7.48,7.48,0,0,0-3.1-.64,8,8,0,0,0-3,.59,6.51,6.51,0,0,0-2.46,1.77,5.64,5.64,0,0,0-1.3,2.91,3.64,3.64,0,0,0,.35,2.34,8.22,8.22,0,0,0,1.4,1.84,22.63,22.63,0,0,0,2.39,1.93c.86.58,1.73,1.14,2.63,1.67l-.32-.15a30,30,0,0,1,2.81,1.82,12.26,12.26,0,0,1,2.32,2.22,7.91,7.91,0,0,1,1.43,2.78,8.38,8.38,0,0,1,.14,3.57,8.76,8.76,0,0,1-1.5,3.77,11.54,11.54,0,0,1-2.84,2.78,13.26,13.26,0,0,1-3.6,1.72,13,13,0,0,1-3.85.59,14.17,14.17,0,0,1-3.82-.49l-3.65-1A1.2,1.2,0,0,0,1163.89,306.4Z" transform="translate(-14.36 -19.53)"/><path class="cls-2" d="M560.43,220.27a3.4,3.4,0,0,1-1.31-2.89,20,20,0,0,1,.93-4.84l21-72.2q1.53-5.13,3.14-6.31,2.2-1.68,6.78-1.68h4.16l4.23-14.58H545.48l-25.79,45-15.46,27.63q.75-30.85.76-54.75,0-5.94-.09-17.89H453l-4.24,14.58h5.68q3.9,0,5,.93a3.42,3.42,0,0,1,1.14,2.8,28.32,28.32,0,0,1-1.35,6.36l-19.9,70.18c-1.08,3.88-2.19,6.29-3.35,7.23s-3.24,1.42-6.23,1.42H425.2l-4.07,14.58h45.69L471,221.27h-3.81c-3.06,0-5-.33-5.94-1a3.23,3.23,0,0,1-1.35-2.78,26.84,26.84,0,0,1,1.1-4.88l22.49-79.84-.34,96.12h20l55.18-96.12L535.34,212.2c-1.18,4.22-2.33,6.79-3.43,7.7s-3.21,1.37-6.31,1.37h-4l-4.07,14.58h49.12l4.24-14.58h-4.24Q561.76,221.27,560.43,220.27Z" transform="translate(-14.36 -19.53)"/><path class="cls-3" d="M655.87,211.09q-1.39,4.59-3.36,5.85c-1.31.85-4,1.27-8.17,1.27h-24l10-34.66h16.28a5.07,5.07,0,0,1,2.63.46,1.5,1.5,0,0,1,.67,1.32,11.71,11.71,0,0,1-.42,2.54l-1.43,5.25h17.71L676,157.19H658.15l-1.51,5.08a6.6,6.6,0,0,1-1.86,3.18,6.13,6.13,0,0,1-3.63.81H635.32l9-31h21.29c3.14,0,5.12.29,5.93.85a2.88,2.88,0,0,1,1.22,2.54,15.51,15.51,0,0,1-.59,4.07l-1.86,6.36h19.49l8.82-31.28H610.1l-4.16,14.58h5.17q4.15,0,5.39,1a3.73,3.73,0,0,1,1.22,3.09,28.55,28.55,0,0,1-1.35,6.27l-20.21,70.52q-1.44,5.14-3.26,6.6t-6.15,1.46H582l-4.07,14.58h90.38l9.41-32.38h-19.5Z" transform="translate(-14.36 -19.53)"/><path class="cls-4" d="M800.84,138.54A35,35,0,0,0,785,122.69q-10.12-4.92-28-4.92H712.79l-4.15,14.58h4.15q4.74,0,6.35,1.19a3,3,0,0,1,1.19,2.63,29.71,29.71,0,0,1-1.36,6.18l-20.09,70.86q-1.44,5.14-3.56,6.86-1.61,1.2-6.78,1.2H684.9l-4.24,14.58h50.83q19.07,0,29.82-3.06t21.05-12q10.3-8.94,17.25-23.82a75.46,75.46,0,0,0,6.94-32.33Q806.55,149.47,800.84,138.54Zm-25.56,49.8q-4.74,13.1-11.39,19.37a37.43,37.43,0,0,1-13.63,8.6q-7,2.33-22.06,2.33h-5.93l23.89-83h3.21a80.19,80.19,0,0,1,14,1.18,17.58,17.58,0,0,1,8.61,4.07,22,22,0,0,1,5.87,8.6A32.47,32.47,0,0,1,780,161.68,77.8,77.8,0,0,1,775.28,188.34Z" transform="translate(-14.36 -19.53)"/><path class="cls-5" d="M834.4,117.77l-4.16,14.58h5.35q3.81,0,5.08,1a3.38,3.38,0,0,1,1.27,2.8,24.21,24.21,0,0,1-1.1,5.33l-20.53,72.39q-1.35,4.63-3.09,6t-6,1.38H806.5l-4.16,14.58h50.2l4.24-14.58h-5.34c-2.43,0-4-.33-4.84-1a3.47,3.47,0,0,1-1.18-2.84,18.83,18.83,0,0,1,1-4.66l20.28-71.53q1.69-6,3.52-7.45t7.07-1.46H881l4.15-14.58Z" transform="translate(-14.36 -19.53)"/><path class="cls-6" d="M934.7,219.15q-12.13,0-19.75-8.06t-7.63-22.63q0-20.16,11.44-38.52t29.07-18.35q8.14,0,12.89,3.56a7.41,7.41,0,0,1,3.14,6.19,33.39,33.39,0,0,1-1,7.2L960,160.24h21.18l9.16-34.59A73.09,73.09,0,0,0,971,116.92,77.32,77.32,0,0,0,949.78,114q-33.48,0-53.4,28.23A81.82,81.82,0,0,0,881,190.58q0,22.89,12.8,35.86t35.94,13a70.78,70.78,0,0,0,36.53-9.07L972,207.19Q952.74,219.15,934.7,219.15Z" transform="translate(-14.36 -19.53)"/><path class="cls-7" d="M1080.86,219.7q-1.48-1.48-1.74-6.74l-4.52-96.37h-25.39l-58.7,96q-3.39,5.4-6.23,7t-9.2,1.6l-4.15,14.67h45.55l4-14.67h-3.15c-2.38,0-4-.29-4.81-.89a2.55,2.55,0,0,1-1.24-2.08q0-2.11,2.82-6.69l6.06-9.92h34.52c.28,5.09.42,8.87.42,11.36,0,3.33-.55,5.54-1.67,6.61s-3.45,1.61-7,1.61h-2.75l-4.33,14.67h47.3l4.15-14.67h-4.15C1083.78,221.18,1081.85,220.69,1080.86,219.7Zm-52.7-34.46,25.45-41.45,1.34,41.45Z" transform="translate(-14.36 -19.53)"/><path class="cls-8" d="M1168.11,204.23l-2.15,7.46q-1.29,4.41-3.22,5.76t-6.92,1.36h-22.17l21.85-77.37q1.79-6,3.6-7.56t6.4-1.53h6.11l4.15-14.58h-52.14l-4.24,14.58h5.25c2.6,0,4.33.34,5.17,1a3.21,3.21,0,0,1,1.28,2.63,24.56,24.56,0,0,1-1.11,5.67l-20.14,71c-1,3.66-2.12,6-3.3,7s-3.08,1.54-5.68,1.54h-5.17l-4.16,14.58h86.76l9.33-31.62Z" transform="translate(-14.36 -19.53)"/><path class="cls-1" d="M181.67,145h12.54c5.69,0,9.36.52,11,1.58a5.24,5.24,0,0,1,2.5,4.75q0,2.14-2.34,9.06L171.67,261c-.45,1.25-.79,2.25-1,3q-5.74,19.27-14.76,27.19-6,5.32-16.2,5.32-8,0-12.19-3.09a9.38,9.38,0,0,1-4.18-7.84,41.73,41.73,0,0,1,1.51-9.5l2.84-10.79H92.4L77.35,310.6a115.06,115.06,0,0,0,29.85,12.08,139.77,139.77,0,0,0,34.2,4q31.28,0,49.51-12.66t29.26-45.88L256.71,158.9q3-9.1,6.44-11.49T275.61,145h54.77V120.28H189.86Z" transform="translate(-14.36 -19.53)"/><path class="cls-9" d="M164.69,24.43C222.77,20,285.17,37.59,321.75,85.33c56.48,73.7,29.62,159.8,29.62,159.8s-17.91-1.38-39.95,24.79-41.32,35.13-42,39.26,2.06,9.64,13.08,6.2,29.62-24.11,30.31-19.29-11,20.67-23.42,26.18-33.75,5.51-40.64,11-9,8.95-9,8.95-24.11,3.44-24.79,10.33,18.59,4.13,18.59,4.13-25.48,13.09-19.28,29.62c0,0,22-24.11,52.34-28.93s102.63-22,117.78-104C404.36,145.58,341.7,34.07,227.1,20.75a177.64,177.64,0,0,0-62.5,3.69Z" transform="translate(-14.36 -19.53)"/><path class="cls-10" d="M234.06,397.85s-99,12.88-154.61-59.68S50.29,180.84,50.29,180.84s17.63,1.36,39.33-24.41,40.69-34.58,41.36-38.65-2-9.5-12.88-6.11-29.16,23.74-29.84,19,10.85-20.34,23.06-25.77,33.23-5.42,40-10.85,8.81-8.81,8.81-8.81,23.74-3.39,24.42-10.17S166.25,71,166.25,71s25.09-12.89,19-29.16c0,0-21.7,23.73-51.54,28.48s-101,21.7-116,102.4C1.7,259.43,43.41,358.09,128.16,392,159.54,404.61,202.08,411.12,234.06,397.85Z" transform="translate(-14.36 -19.53)"/><polygon class="cls-11" points="207.06 189.89 182.65 187.93 184.52 164.71 159.37 162.69 157.5 185.9 133.09 183.94 131.16 207.86 155.57 209.83 153.7 233.05 178.86 235.07 180.73 211.85 205.14 213.82 207.06 189.89"/><polygon class="cls-12" points="207.06 189.89 182.65 187.93 184.52 164.71 159.37 162.69 157.5 185.9 133.09 183.94 131.16 207.86 155.57 209.83 153.7 233.05 178.86 235.07 180.73 211.85 205.14 213.82 207.06 189.89"/></svg>